<svg width="32" height="31" viewBox="0 0 32 31" fill="none" xmlns="http://www.w3.org/2000/svg">
<path d="M19.5672 6.66659C20.8695 6.92067 22.0664 7.5576 23.0046 8.49583C23.9429 9.43407 24.5798 10.6309 24.8339 11.9333M19.5672 1.33325C22.2729 1.63383 24.796 2.84548 26.7222 4.76926C28.6484 6.69304 29.8632 9.2146 30.1672 11.9199M28.8339 22.5599V26.5599C28.8354 26.9313 28.7593 27.2988 28.6106 27.639C28.4618 27.9793 28.2436 28.2847 27.97 28.5357C27.6964 28.7868 27.3733 28.9779 27.0216 29.0969C26.6698 29.2158 26.2971 29.26 25.9272 29.2266C21.8243 28.7808 17.8832 27.3788 14.4206 25.1333C11.199 23.0861 8.46768 20.3548 6.42056 17.1333C4.1672 13.6549 2.76489 9.69458 2.32723 5.57325C2.29391 5.20454 2.33773 4.83293 2.4559 4.48208C2.57406 4.13124 2.76399 3.80884 3.01358 3.53541C3.26318 3.26199 3.56697 3.04353 3.90562 2.89395C4.24426 2.74436 4.61035 2.66693 4.98056 2.66659H8.98056C9.62764 2.66022 10.255 2.88936 10.7456 3.3113C11.2362 3.73323 11.5567 4.31918 11.6472 4.95992C11.8161 6.24001 12.1292 7.49689 12.5806 8.70659C12.76 9.18382 12.7988 9.70247 12.6924 10.2011C12.5861 10.6997 12.339 11.1574 11.9806 11.5199L10.2872 13.2133C12.1853 16.5513 14.9492 19.3152 18.2872 21.2133L19.9806 19.5199C20.3431 19.1614 20.8008 18.9144 21.2994 18.808C21.798 18.7017 22.3167 18.7405 22.7939 18.9199C24.0036 19.3713 25.2605 19.6844 26.5406 19.8533C27.1883 19.9446 27.7798 20.2709 28.2026 20.7699C28.6254 21.269 28.8501 21.906 28.8339 22.5599Z" stroke="#A0A0AB" stroke-width="2.66667" stroke-linecap="round" stroke-linejoin="round"/>
</svg>
