<svg width="24" height="20" viewBox="0 0 24 20" fill="none" xmlns="http://www.w3.org/2000/svg">
<path d="M16 0.630371C14.5267 0.630371 13.3333 1.8237 13.3333 3.29704V8.63037C13.3333 10.1037 14.5267 11.297 16 11.297H20.013L15.6146 17.2059C14.9613 18.0846 15.5876 19.3335 16.6849 19.3335C17.1062 19.3335 17.5006 19.1357 17.7526 18.797L23.474 11.1121C23.8153 10.6521 24 10.0943 24 9.521V3.29704C24 1.8237 22.8067 0.630371 21.3333 0.630371H16ZM2.66667 0.666829C1.19333 0.666829 0 1.86016 0 3.3335V8.66683C0 10.1402 1.19333 11.3335 2.66667 11.3335H6.67969L2.30729 17.2033C1.65396 18.0833 2.28027 19.3335 3.3776 19.3335C3.79894 19.3335 4.19592 19.1357 4.44792 18.797L10.1406 11.1486C10.482 10.6886 10.6667 10.1321 10.6667 9.55746V3.3335C10.6667 1.86016 9.47333 0.666829 8 0.666829H2.66667Z" fill="#18181B"/>
</svg>
