<svg width="24" height="24" viewBox="0 0 24 24" fill="none" xmlns="http://www.w3.org/2000/svg">
<path fill-rule="evenodd" clip-rule="evenodd" d="M23.9022 10.4546C23.7074 8.95798 23.2273 7.47282 22.4368 6.07931V6.08035C19.504 0.908326 13.3061 -1.25068 7.89972 0.722942L15.614 4.65872C16.869 5.27424 17.9782 6.21679 18.7999 7.44783L20.6755 12.0704C20.6755 12.0704 19.3186 13.0542 23.9022 10.4546ZM3.94063 10.5932V10.5973C3.88023 10.941 3.84168 11.2899 3.82606 11.6399L2.93139 19.8582C2.4221 19.2698 1.96282 18.622 1.56393 17.919C-1.31162 12.849 -0.0930824 6.57406 4.16348 2.91115L7.99409 4.86602L7.96282 4.88372C5.7507 6.13872 4.34679 8.2696 3.93957 10.5942L3.94063 10.5932ZM16.2845 18.9679L23.6717 14.778C22.927 17.9045 20.9357 20.7249 17.9196 22.436C14.1942 24.5492 9.81786 24.4513 6.30597 22.5621L6.77047 18.294C9.31169 20.4051 12.9923 20.8426 16.0365 19.1168C16.1199 19.0689 16.2022 19.02 16.2834 18.97L16.2845 18.9679Z" fill="#18181B"/>
</svg>
